# xmcd
#
# Track frame offsets: 
#        150
#        30362
#        65312
#        92612
#        136275
#        156900
#
# Disc length: 2589 seconds
#
# Revision: 3
# Processed by: cddbd v1.5.2PL0 Copyright (c) Steve Scherf et al.
# Submitted via: ExactAudioCopy v1.0b3
#
DISCID=410a1b06
DTITLE=Kenny Dorham - 'Round About Midnight At The Cafe Bohemia vol. 1
DYEAR=1956
DGENRE=Jazz
TTITLE0=Monaco
TTITLE1='Round About Midnight
TTITLE2=Mexico City
TTITLE3=A Night In Tunisia
TTITLE4=Autumn In New York
TTITLE5=Hill's Edge
EXTD=YEAR: 1956
EXTT0=
EXTT1=
EXTT2=
EXTT3=
EXTT4=
EXTT5=
PLAYORDER=
